<svg width="283" height="283" viewBox="0 0 283 283" fill="none" xmlns="http://www.w3.org/2000/svg">
<path d="M166.425 4.8389C191.596 -7.37714 221.451 7.9712 226.163 35.5508L232.708 73.8625C234.115 82.0959 237.945 89.7228 243.708 95.7686L270.698 124.082C289.883 144.208 284.569 177.086 260.019 190.143L225.105 208.712C217.776 212.61 211.766 218.593 207.835 225.905L189.182 260.6C175.964 285.186 142.886 290.276 122.888 270.803L95.1639 243.806C89.157 237.957 81.5369 234.039 73.2845 232.558L35.1965 225.72C7.7228 220.787 -7.38502 190.924 4.91815 165.868L22.2806 130.51C25.9398 123.058 27.3085 114.689 26.2138 106.46L20.9994 67.2598C17.3331 39.6971 40.9793 16.2435 68.5111 20.1352L107.242 25.6099C115.513 26.779 123.944 25.4555 131.458 21.8087L166.425 4.8389Z" fill="#003300"/>
</svg>
